<?xml version="1.0" standalone="no"?>
<!DOCTYPE svg PUBLIC "-//W3C//DTD SVG 20010904//EN"
 "http://www.w3.org/TR/2001/REC-SVG-20010904/DTD/svg10.dtd">
<svg version="1.0" xmlns="http://www.w3.org/2000/svg"
 width="576.000000pt" height="576.000000pt" viewBox="0 0 576.000000 576.000000"
 preserveAspectRatio="xMidYMid meet">
<metadata>
Created by potrace 1.14, written by Peter Selinger 2001-2017
</metadata>
<g transform="translate(0.000000,576.000000) scale(0.100000,-0.100000)"
fill="#000000" stroke="none">
<path d="M783 5119 c-65 -8 -107 -26 -149 -62 -73 -63 -101 -181 -63 -265 45
-104 123 -149 256 -151 l42 -1 1 -480 0 -479 -77 -1 c-139 0 -202 -20 -260
-82 -84 -90 -76 -253 18 -332 64 -54 125 -72 219 -65 23 2 128 0 243 -4 31 -1
57 2 57 6 0 5 4 6 8 3 8 -4 106 -8 152 -5 8 1 44 1 80 0 70 -1 80 -1 155 0
113 1 160 15 213 63 75 69 93 211 37 302 -55 88 -120 115 -287 115 l-77 1 -3
637 -3 638 -30 49 c-39 63 -102 102 -175 109 -73 8 -148 8 -159 0 -5 -3 -12
-1 -15 3 -3 5 -25 6 -50 2 -24 -4 -50 -4 -58 0 -7 3 -41 3 -75 -1z"/>
<path d="M2557 4804 c-3 -3 -20 -7 -38 -9 -60 -7 -129 -32 -129 -46 0 -5 -6
-9 -13 -9 -20 0 -83 -76 -108 -129 -41 -87 -31 -227 22 -304 66 -96 147 -139
269 -144 152 -6 230 -6 235 -1 3 3 22 2 43 -2 20 -3 54 -3 74 1 21 3 40 4 42
1 4 -4 57 -4 141 -1 6 0 42 0 80 0 39 0 77 0 85 0 8 0 50 -1 93 -2 42 -1 79 0
82 3 3 3 22 2 43 -1 20 -4 54 -4 74 -1 21 4 40 5 43 2 2 -3 33 -4 67 -3 82 2
71 2 239 1 80 -1 150 0 155 1 5 1 12 1 17 0 9 -2 214 -3 225 -1 4 1 27 1 52 0
130 -5 240 -4 240 3 0 5 4 6 8 3 9 -5 59 -7 230 -6 50 0 138 -1 195 -1 181 -2
246 19 329 105 113 116 115 311 4 430 -34 37 -106 85 -140 93 -28 6 -130 14
-186 13 -25 -1 -54 -1 -65 0 -114 4 -275 4 -275 0 0 -3 -29 -3 -65 0 -35 3
-71 3 -79 0 -8 -3 -50 -3 -93 0 -43 3 -106 3 -141 0 -35 -3 -65 -3 -67 -1 -4
3 -208 4 -222 0 -5 -1 -12 -1 -17 0 -6 1 -57 2 -115 1 -130 -2 -111 -2 -204 1
-42 1 -79 0 -82 -3 -3 -3 -22 -2 -43 1 -20 4 -54 4 -74 1 -21 -4 -40 -5 -43
-2 -3 4 -57 4 -140 1 -5 0 -41 0 -80 0 -38 0 -77 0 -85 0 -8 0 -50 1 -93 2
-42 1 -79 0 -82 -3 -3 -3 -22 -2 -43 1 -20 4 -54 4 -74 1 -21 -4 -40 -5 -43
-2 -2 3 -33 4 -67 3 -89 -2 -161 -1 -168 4 -4 3 -10 2 -13 -1z"/>
<path d="M2629 3206 c-2 -2 -38 -6 -79 -9 -47 -3 -93 -13 -121 -26 -52 -25
-129 -88 -129 -107 0 -7 -4 -14 -10 -16 -5 -1 -19 -29 -30 -60 -38 -109 -12
-241 64 -321 73 -78 138 -103 271 -105 48 -1 90 -3 92 -6 3 -2 17 -1 31 3 15
5 36 5 46 1 11 -3 39 -3 63 0 23 4 43 4 43 1 0 -7 99 -6 106 1 2 3 24 2 48 -2
23 -3 51 -4 61 0 9 3 39 3 66 0 27 -4 53 -4 59 0 5 3 35 3 66 0 30 -3 57 -3
59 0 2 4 24 4 48 0 24 -3 52 -3 63 0 10 4 30 4 44 0 14 -3 42 -3 62 0 21 4 40
5 42 2 3 -2 34 -4 68 -3 35 1 86 1 113 0 148 -4 175 -3 175 4 0 5 4 6 8 3 5
-3 40 -5 78 -5 72 -1 83 -1 177 -4 31 -1 57 2 57 6 0 5 4 6 8 3 8 -5 38 -6
217 -7 44 0 85 0 90 0 28 -1 134 0 160 2 17 0 37 1 45 0 8 0 35 0 60 0 25 0
52 1 60 0 8 0 35 0 60 0 25 0 52 0 60 0 158 -8 241 19 322 103 117 121 114
321 -8 441 -38 38 -96 73 -134 83 -22 5 -129 12 -177 12 -24 -1 -51 -1 -60 0
-10 0 -38 -1 -63 -1 -25 0 -52 -1 -60 0 -8 0 -35 0 -60 0 -25 0 -51 0 -57 0
-7 1 -19 1 -25 2 -20 1 -140 0 -173 -2 -16 0 -37 -1 -45 0 -8 0 -35 0 -60 0
-25 0 -52 -1 -60 0 -8 0 -35 0 -60 0 -25 0 -51 0 -57 0 -7 1 -19 1 -25 2 -20
1 -140 0 -173 -2 -16 0 -37 -1 -45 0 -8 0 -35 0 -60 0 -25 0 -52 -1 -60 0 -8
0 -35 0 -60 0 -25 0 -51 0 -57 0 -7 1 -19 1 -25 2 -20 1 -140 0 -173 -2 -16 0
-37 -1 -45 0 -8 0 -35 0 -60 0 -25 0 -52 -1 -60 0 -8 0 -35 0 -60 0 -25 0 -51
0 -57 0 -7 1 -19 1 -25 2 -20 1 -140 0 -173 -2 -16 0 -37 -1 -45 0 -8 0 -35 0
-60 0 -25 0 -52 -1 -60 0 -8 0 -35 0 -60 0 -25 0 -51 0 -57 0 -7 1 -19 1 -25
2 -7 0 -41 0 -75 -1 -34 -1 -66 0 -71 4 -5 3 -11 4 -13 2z"/>
<path d="M1048 2565 c-3 -3 -28 -7 -57 -10 -123 -12 -265 -81 -357 -173 -66
-66 -211 -266 -223 -309 -18 -63 4 -203 31 -203 5 0 8 -6 8 -13 0 -14 45 -51
90 -75 34 -18 127 -24 170 -10 61 19 105 59 181 166 84 118 120 144 192 138
81 -6 140 -70 140 -151 0 -42 -19 -82 -57 -121 -12 -12 -59 -63 -106 -115 -81
-88 -158 -172 -245 -265 -22 -23 -74 -80 -115 -125 -41 -45 -95 -104 -120
-130 -157 -164 -173 -191 -174 -284 -1 -80 16 -125 66 -175 45 -45 91 -62 173
-66 39 -2 72 -4 75 -4 18 -4 214 1 221 6 5 3 9 2 9 -3 0 -4 25 -8 55 -8 30 0
55 2 55 5 0 4 124 4 140 0 16 -4 214 1 221 6 5 3 9 1 9 -3 0 -5 25 -6 55 -3
30 3 55 3 55 -1 0 -7 45 8 95 32 131 62 163 265 59 372 -44 44 -94 70 -140 71
-19 1 -34 5 -34 9 0 5 -4 6 -8 3 -5 -3 -39 -5 -78 -5 -194 -2 -234 -1 -234 5
0 4 7 14 15 23 16 16 45 48 200 216 50 54 103 112 119 128 61 64 135 201 152
282 40 190 7 373 -94 515 -35 48 -145 153 -179 171 -15 7 -30 16 -33 20 -8 9
-103 46 -147 58 -23 7 -70 14 -104 17 -35 3 -66 7 -69 9 -4 3 -9 2 -12 0z"/>
<path d="M2560 1599 c-41 -4 -95 -14 -120 -23 -60 -22 -131 -89 -166 -156 -24
-46 -28 -66 -28 -130 0 -86 3 -100 29 -154 41 -86 140 -156 238 -171 68 -10
157 -11 157 -2 0 5 4 6 8 3 9 -5 59 -7 230 -6 87 0 284 0 317 1 55 0 113 0
130 -1 137 -5 275 -3 275 3 0 5 4 6 8 3 9 -5 33 -6 232 -6 52 -1 119 -1 148
-2 29 0 55 1 58 4 2 3 21 2 42 -1 20 -4 54 -4 74 -1 21 4 40 5 43 2 2 -3 33
-4 67 -3 35 1 86 1 113 0 148 -4 175 -3 175 4 0 5 4 6 8 3 9 -5 59 -7 230 -6
50 0 138 -1 195 -1 181 -2 246 19 329 105 118 121 114 321 -8 441 -38 38 -96
73 -134 83 -23 5 -130 12 -180 12 -25 -1 -54 -1 -65 0 -137 5 -275 3 -275 -3
0 -5 -4 -6 -8 -3 -9 5 -33 6 -232 6 -52 1 -119 1 -148 2 -29 0 -55 -1 -58 -4
-2 -3 -21 -2 -42 1 -20 4 -54 4 -74 1 -21 -4 -40 -5 -43 -2 -2 3 -33 4 -67 3
-82 -2 -71 -2 -239 -1 -80 1 -150 0 -155 -1 -5 -1 -12 -1 -16 0 -10 3 -216 3
-225 0 -5 -1 -12 -1 -17 0 -12 3 -370 2 -382 0 -5 -1 -12 -1 -16 0 -17 4 -219
3 -223 -1 -3 -2 -28 -2 -57 1 -29 3 -87 3 -128 0z"/>
</g>
</svg>
